# xmcd
#
# Track frame offsets: 
#        183
#        11483
#        23903
#        34743
#        43515
#        51538
#        65173
#        75228
#        86203
#        96890
#        108808
#        119743
#        131650
#        143360
#        155603
#        168473
#        180408
#        193793
#        205213
#        215825
#        225513
#        237930
#        248595
#        257398
#        265295
#
# Disc length: 3724 seconds
#
# Revision: 1
# Processed by: cddbd v1.5.2PL0 Copyright (c) Steve Scherf et al.
# Submitted via: ExactAudioCopyFreeDBPlugin 1.0
#
DISCID=5a0e8a19
DTITLE=25 Country Classics - Send Me The Pillow You Dream On
DYEAR=1900
DGENRE=Country
TTITLE0=Hank Locklin - Send Me The Pillow You Dream On
TTITLE1=Kenny Rogers - Reuben James
TTITLE2=Willie Nelson - I Feel Sorry For Him
TTITLE3=Patsy Cline - Come On In
TTITLE4=Johnny Cash - Hey Good Lookin'
TTITLE5=Willie Nelson - You'll Always Have Someone
TTITLE6=Dave Dudley - 6 Days On The Road
TTITLE7=Kenny Rogers - Always Leaving Always Gone
TTITLE8=Waylon Jennings - Burning Memories
TTITLE9=Patsy Cline - Walkin' After Midnight
TTITLE10=Guy Mitchell - Singin' The Blues
TTITLE11=Roy Drusky - Take These Chains From My Heart
TTITLE12=Frankie Laine - Mule Train
TTITLE13=Waylon Jennings - Don't Think Twice
TTITLE14=Willie Nelson - If I Don't Understand
TTITLE15=Johnny Lee - Ramblin' Rose
TTITLE16=Lyn Anderson - Rose Garden
TTITLE17=Patsy Cline - The Heart You Break May Be Your Own
TTITLE18=Kenny Rogers - Ticket To Nowhere
TTITLE19=Barbra Mandrell - Release Me
TTITLE20=Willie Nelson - I Can't Find The Time
TTITLE21=Stonewall Jackson - Waterloo
TTITLE22=Roy Drusky - The Last Letter
TTITLE23=Freddy Fender - Wild Side Of Life
TTITLE24=Kenny Rogers - Sunshine
EXTD=
EXTT0=
EXTT1=
EXTT2=
EXTT3=
EXTT4=
EXTT5=
EXTT6=
EXTT7=
EXTT8=
EXTT9=
EXTT10=
EXTT11=
EXTT12=
EXTT13=
EXTT14=
EXTT15=
EXTT16=
EXTT17=
EXTT18=
EXTT19=
EXTT20=
EXTT21=
EXTT22=
EXTT23=
EXTT24=
PLAYORDER=
